<mxfile host="app.diagrams.net" modified="2021-03-29T21:33:52.298Z" agent="5.0 (Windows)" etag="rRg40mE2-6Fr6u7IWKrN" version="14.5.1" type="github">
  <diagram id="-uOdH3LubcK00C56fkGU" name="Page-1">
    <mxGraphModel dx="1422" dy="791" grid="1" gridSize="10" guides="1" tooltips="1" connect="1" arrows="1" fold="1" page="1" pageScale="1" pageWidth="827" pageHeight="1169" math="0" shadow="0">
      <root>
        <mxCell id="0" />
        <mxCell id="1" parent="0" />
        <mxCell id="9KH8UP5y82EJrN9jIxo6-1" value="" style="rounded=0;whiteSpace=wrap;html=1;" vertex="1" parent="1">
          <mxGeometry x="40" y="40" width="760" height="430" as="geometry" />
        </mxCell>
        <mxCell id="9KH8UP5y82EJrN9jIxo6-21" value="" style="rounded=0;whiteSpace=wrap;html=1;" vertex="1" parent="1">
          <mxGeometry x="160" y="40" width="520" height="430" as="geometry" />
        </mxCell>
        <mxCell id="9KH8UP5y82EJrN9jIxo6-279" value="Instrument Synchronizer" style="rounded=1;whiteSpace=wrap;html=1;strokeWidth=3;" vertex="1" parent="1">
          <mxGeometry x="200" y="50" width="80" height="30" as="geometry" />
        </mxCell>
        <mxCell id="9KH8UP5y82EJrN9jIxo6-280" value="" style="rounded=1;whiteSpace=wrap;html=1;" vertex="1" parent="1">
          <mxGeometry x="180" y="60" width="10" height="10" as="geometry" />
        </mxCell>
        <mxCell id="9KH8UP5y82EJrN9jIxo6-281" value="Instrument Synchronizer" style="rounded=1;whiteSpace=wrap;html=1;" vertex="1" parent="1">
          <mxGeometry x="374" y="50" width="80" height="30" as="geometry" />
        </mxCell>
        <mxCell id="9KH8UP5y82EJrN9jIxo6-283" value="Metronome Generator" style="rounded=1;whiteSpace=wrap;html=1;" vertex="1" parent="1">
          <mxGeometry x="470" y="50" width="80" height="30" as="geometry" />
        </mxCell>
        <mxCell id="9KH8UP5y82EJrN9jIxo6-287" value="&lt;p style=&quot;line-height: 220%&quot;&gt;Register&lt;/p&gt;" style="rounded=1;whiteSpace=wrap;html=1;" vertex="1" parent="1">
          <mxGeometry x="570" y="65" width="80" height="15" as="geometry" />
        </mxCell>
        <mxCell id="9KH8UP5y82EJrN9jIxo6-288" value="LogIn" style="rounded=1;whiteSpace=wrap;html=1;" vertex="1" parent="1">
          <mxGeometry x="570" y="50" width="80" height="15" as="geometry" />
        </mxCell>
        <mxCell id="9KH8UP5y82EJrN9jIxo6-291" value="About" style="rounded=1;whiteSpace=wrap;html=1;" vertex="1" parent="1">
          <mxGeometry x="200" y="140" width="80" height="15" as="geometry" />
        </mxCell>
        <mxCell id="9KH8UP5y82EJrN9jIxo6-292" value="Contact" style="rounded=1;whiteSpace=wrap;html=1;" vertex="1" parent="1">
          <mxGeometry x="200" y="160" width="80" height="15" as="geometry" />
        </mxCell>
        <mxCell id="9KH8UP5y82EJrN9jIxo6-293" value="Landing Page Text" style="rounded=1;whiteSpace=wrap;html=1;" vertex="1" parent="1">
          <mxGeometry x="320" y="140" width="330" height="270" as="geometry" />
        </mxCell>
        <mxCell id="9KH8UP5y82EJrN9jIxo6-294" value="" style="rounded=0;whiteSpace=wrap;html=1;" vertex="1" parent="1">
          <mxGeometry x="40" y="520" width="760" height="430" as="geometry" />
        </mxCell>
        <mxCell id="9KH8UP5y82EJrN9jIxo6-295" value="" style="rounded=0;whiteSpace=wrap;html=1;" vertex="1" parent="1">
          <mxGeometry x="160" y="520" width="520" height="430" as="geometry" />
        </mxCell>
        <mxCell id="9KH8UP5y82EJrN9jIxo6-296" value="Instrument Synchronizer" style="rounded=1;whiteSpace=wrap;html=1;" vertex="1" parent="1">
          <mxGeometry x="200" y="530" width="80" height="30" as="geometry" />
        </mxCell>
        <mxCell id="9KH8UP5y82EJrN9jIxo6-297" value="" style="rounded=1;whiteSpace=wrap;html=1;" vertex="1" parent="1">
          <mxGeometry x="180" y="540" width="10" height="10" as="geometry" />
        </mxCell>
        <mxCell id="9KH8UP5y82EJrN9jIxo6-298" value="Instrument Synchronizer" style="rounded=1;whiteSpace=wrap;html=1;" vertex="1" parent="1">
          <mxGeometry x="374" y="530" width="80" height="30" as="geometry" />
        </mxCell>
        <mxCell id="9KH8UP5y82EJrN9jIxo6-299" value="Metronome Generator" style="rounded=1;whiteSpace=wrap;html=1;" vertex="1" parent="1">
          <mxGeometry x="470" y="530" width="80" height="30" as="geometry" />
        </mxCell>
        <mxCell id="9KH8UP5y82EJrN9jIxo6-301" value="LogIn" style="rounded=1;whiteSpace=wrap;html=1;" vertex="1" parent="1">
          <mxGeometry x="570" y="530" width="80" height="15" as="geometry" />
        </mxCell>
        <mxCell id="9KH8UP5y82EJrN9jIxo6-302" value="About" style="rounded=1;whiteSpace=wrap;html=1;" vertex="1" parent="1">
          <mxGeometry x="200" y="620" width="80" height="15" as="geometry" />
        </mxCell>
        <mxCell id="9KH8UP5y82EJrN9jIxo6-303" value="Contact" style="rounded=1;whiteSpace=wrap;html=1;" vertex="1" parent="1">
          <mxGeometry x="200" y="640" width="80" height="15" as="geometry" />
        </mxCell>
        <mxCell id="9KH8UP5y82EJrN9jIxo6-304" value="" style="rounded=1;whiteSpace=wrap;html=1;" vertex="1" parent="1">
          <mxGeometry x="320" y="620" width="330" height="270" as="geometry" />
        </mxCell>
        <mxCell id="9KH8UP5y82EJrN9jIxo6-305" value="Email" style="rounded=1;whiteSpace=wrap;html=1;" vertex="1" parent="1">
          <mxGeometry x="445" y="660" width="80" height="15" as="geometry" />
        </mxCell>
        <mxCell id="9KH8UP5y82EJrN9jIxo6-307" value="Username" style="rounded=1;whiteSpace=wrap;html=1;" vertex="1" parent="1">
          <mxGeometry x="445" y="690" width="80" height="15" as="geometry" />
        </mxCell>
        <mxCell id="9KH8UP5y82EJrN9jIxo6-308" value="First Name" style="rounded=1;whiteSpace=wrap;html=1;" vertex="1" parent="1">
          <mxGeometry x="445" y="720" width="80" height="15" as="geometry" />
        </mxCell>
        <mxCell id="9KH8UP5y82EJrN9jIxo6-309" value="Last Name" style="rounded=1;whiteSpace=wrap;html=1;" vertex="1" parent="1">
          <mxGeometry x="445" y="750" width="80" height="15" as="geometry" />
        </mxCell>
        <mxCell id="9KH8UP5y82EJrN9jIxo6-310" value="Password" style="rounded=1;whiteSpace=wrap;html=1;" vertex="1" parent="1">
          <mxGeometry x="445" y="780" width="80" height="15" as="geometry" />
        </mxCell>
        <mxCell id="9KH8UP5y82EJrN9jIxo6-312" value="Confirm Pass" style="rounded=1;whiteSpace=wrap;html=1;" vertex="1" parent="1">
          <mxGeometry x="445" y="810" width="80" height="15" as="geometry" />
        </mxCell>
        <mxCell id="9KH8UP5y82EJrN9jIxo6-313" value="Register" style="rounded=1;whiteSpace=wrap;html=1;" vertex="1" parent="1">
          <mxGeometry x="445" y="840" width="80" height="15" as="geometry" />
        </mxCell>
        <mxCell id="9KH8UP5y82EJrN9jIxo6-314" value="" style="rounded=0;whiteSpace=wrap;html=1;" vertex="1" parent="1">
          <mxGeometry x="40" y="1000" width="760" height="430" as="geometry" />
        </mxCell>
        <mxCell id="9KH8UP5y82EJrN9jIxo6-315" value="" style="rounded=0;whiteSpace=wrap;html=1;" vertex="1" parent="1">
          <mxGeometry x="160" y="1000" width="520" height="430" as="geometry" />
        </mxCell>
        <mxCell id="9KH8UP5y82EJrN9jIxo6-316" value="Instrument Synchronizer" style="rounded=1;whiteSpace=wrap;html=1;" vertex="1" parent="1">
          <mxGeometry x="200" y="1010" width="80" height="30" as="geometry" />
        </mxCell>
        <mxCell id="9KH8UP5y82EJrN9jIxo6-317" value="" style="rounded=1;whiteSpace=wrap;html=1;" vertex="1" parent="1">
          <mxGeometry x="180" y="1020" width="10" height="10" as="geometry" />
        </mxCell>
        <mxCell id="9KH8UP5y82EJrN9jIxo6-318" value="Instrument Synchronizer" style="rounded=1;whiteSpace=wrap;html=1;" vertex="1" parent="1">
          <mxGeometry x="374" y="1010" width="80" height="30" as="geometry" />
        </mxCell>
        <mxCell id="9KH8UP5y82EJrN9jIxo6-319" value="Metronome Generator" style="rounded=1;whiteSpace=wrap;html=1;" vertex="1" parent="1">
          <mxGeometry x="470" y="1010" width="80" height="30" as="geometry" />
        </mxCell>
        <mxCell id="9KH8UP5y82EJrN9jIxo6-320" value="&lt;p style=&quot;line-height: 220%&quot;&gt;Register&lt;/p&gt;" style="rounded=1;whiteSpace=wrap;html=1;" vertex="1" parent="1">
          <mxGeometry x="570" y="1025" width="80" height="15" as="geometry" />
        </mxCell>
        <mxCell id="9KH8UP5y82EJrN9jIxo6-321" value="LogIn" style="rounded=1;whiteSpace=wrap;html=1;strokeWidth=3;" vertex="1" parent="1">
          <mxGeometry x="570" y="1010" width="80" height="15" as="geometry" />
        </mxCell>
        <mxCell id="9KH8UP5y82EJrN9jIxo6-322" value="About" style="rounded=1;whiteSpace=wrap;html=1;" vertex="1" parent="1">
          <mxGeometry x="200" y="1100" width="80" height="15" as="geometry" />
        </mxCell>
        <mxCell id="9KH8UP5y82EJrN9jIxo6-323" value="Contact" style="rounded=1;whiteSpace=wrap;html=1;" vertex="1" parent="1">
          <mxGeometry x="200" y="1120" width="80" height="15" as="geometry" />
        </mxCell>
        <mxCell id="9KH8UP5y82EJrN9jIxo6-324" value="" style="rounded=1;whiteSpace=wrap;html=1;" vertex="1" parent="1">
          <mxGeometry x="320" y="1100" width="330" height="270" as="geometry" />
        </mxCell>
        <mxCell id="9KH8UP5y82EJrN9jIxo6-327" value="Username" style="rounded=1;whiteSpace=wrap;html=1;" vertex="1" parent="1">
          <mxGeometry x="445" y="1200" width="80" height="15" as="geometry" />
        </mxCell>
        <mxCell id="9KH8UP5y82EJrN9jIxo6-329" value="Password" style="rounded=1;whiteSpace=wrap;html=1;" vertex="1" parent="1">
          <mxGeometry x="445" y="1230" width="80" height="15" as="geometry" />
        </mxCell>
        <mxCell id="9KH8UP5y82EJrN9jIxo6-331" value="Login" style="rounded=1;whiteSpace=wrap;html=1;" vertex="1" parent="1">
          <mxGeometry x="445" y="1260" width="80" height="15" as="geometry" />
        </mxCell>
        <mxCell id="9KH8UP5y82EJrN9jIxo6-333" value="" style="rounded=0;whiteSpace=wrap;html=1;" vertex="1" parent="1">
          <mxGeometry x="40" y="1480" width="760" height="430" as="geometry" />
        </mxCell>
        <mxCell id="9KH8UP5y82EJrN9jIxo6-334" value="" style="rounded=0;whiteSpace=wrap;html=1;" vertex="1" parent="1">
          <mxGeometry x="160" y="1480" width="520" height="430" as="geometry" />
        </mxCell>
        <mxCell id="9KH8UP5y82EJrN9jIxo6-335" value="Instrument Synchronizer" style="rounded=1;whiteSpace=wrap;html=1;" vertex="1" parent="1">
          <mxGeometry x="200" y="1490" width="80" height="30" as="geometry" />
        </mxCell>
        <mxCell id="9KH8UP5y82EJrN9jIxo6-336" value="" style="rounded=1;whiteSpace=wrap;html=1;" vertex="1" parent="1">
          <mxGeometry x="180" y="1500" width="10" height="10" as="geometry" />
        </mxCell>
        <mxCell id="9KH8UP5y82EJrN9jIxo6-337" value="Instrument Synchronizer" style="rounded=1;whiteSpace=wrap;html=1;" vertex="1" parent="1">
          <mxGeometry x="374" y="1490" width="80" height="30" as="geometry" />
        </mxCell>
        <mxCell id="9KH8UP5y82EJrN9jIxo6-338" value="Metronome Generator" style="rounded=1;whiteSpace=wrap;html=1;" vertex="1" parent="1">
          <mxGeometry x="470" y="1490" width="80" height="30" as="geometry" />
        </mxCell>
        <mxCell id="9KH8UP5y82EJrN9jIxo6-339" value="&lt;p style=&quot;line-height: 220%&quot;&gt;Register&lt;/p&gt;" style="rounded=1;whiteSpace=wrap;html=1;" vertex="1" parent="1">
          <mxGeometry x="570" y="1505" width="80" height="15" as="geometry" />
        </mxCell>
        <mxCell id="9KH8UP5y82EJrN9jIxo6-340" value="LogIn" style="rounded=1;whiteSpace=wrap;html=1;" vertex="1" parent="1">
          <mxGeometry x="570" y="1490" width="80" height="15" as="geometry" />
        </mxCell>
        <mxCell id="9KH8UP5y82EJrN9jIxo6-341" value="About" style="rounded=1;whiteSpace=wrap;html=1;strokeWidth=3;" vertex="1" parent="1">
          <mxGeometry x="200" y="1580" width="80" height="15" as="geometry" />
        </mxCell>
        <mxCell id="9KH8UP5y82EJrN9jIxo6-342" value="Contact" style="rounded=1;whiteSpace=wrap;html=1;" vertex="1" parent="1">
          <mxGeometry x="200" y="1600" width="80" height="15" as="geometry" />
        </mxCell>
        <mxCell id="9KH8UP5y82EJrN9jIxo6-343" value="Landing Page About Text" style="rounded=1;whiteSpace=wrap;html=1;" vertex="1" parent="1">
          <mxGeometry x="320" y="1580" width="330" height="270" as="geometry" />
        </mxCell>
        <mxCell id="9KH8UP5y82EJrN9jIxo6-344" value="" style="rounded=0;whiteSpace=wrap;html=1;" vertex="1" parent="1">
          <mxGeometry x="40" y="1960" width="760" height="430" as="geometry" />
        </mxCell>
        <mxCell id="9KH8UP5y82EJrN9jIxo6-345" value="" style="rounded=0;whiteSpace=wrap;html=1;" vertex="1" parent="1">
          <mxGeometry x="160" y="1960" width="520" height="430" as="geometry" />
        </mxCell>
        <mxCell id="9KH8UP5y82EJrN9jIxo6-346" value="Instrument Synchronizer" style="rounded=1;whiteSpace=wrap;html=1;" vertex="1" parent="1">
          <mxGeometry x="200" y="1970" width="80" height="30" as="geometry" />
        </mxCell>
        <mxCell id="9KH8UP5y82EJrN9jIxo6-347" value="" style="rounded=1;whiteSpace=wrap;html=1;" vertex="1" parent="1">
          <mxGeometry x="180" y="1980" width="10" height="10" as="geometry" />
        </mxCell>
        <mxCell id="9KH8UP5y82EJrN9jIxo6-348" value="Instrument Synchronizer" style="rounded=1;whiteSpace=wrap;html=1;" vertex="1" parent="1">
          <mxGeometry x="374" y="1970" width="80" height="30" as="geometry" />
        </mxCell>
        <mxCell id="9KH8UP5y82EJrN9jIxo6-349" value="Metronome Generator" style="rounded=1;whiteSpace=wrap;html=1;" vertex="1" parent="1">
          <mxGeometry x="470" y="1970" width="80" height="30" as="geometry" />
        </mxCell>
        <mxCell id="9KH8UP5y82EJrN9jIxo6-350" value="&lt;p style=&quot;line-height: 220%&quot;&gt;Register&lt;/p&gt;" style="rounded=1;whiteSpace=wrap;html=1;" vertex="1" parent="1">
          <mxGeometry x="570" y="1985" width="80" height="15" as="geometry" />
        </mxCell>
        <mxCell id="9KH8UP5y82EJrN9jIxo6-351" value="LogIn" style="rounded=1;whiteSpace=wrap;html=1;" vertex="1" parent="1">
          <mxGeometry x="570" y="1970" width="80" height="15" as="geometry" />
        </mxCell>
        <mxCell id="9KH8UP5y82EJrN9jIxo6-352" value="About" style="rounded=1;whiteSpace=wrap;html=1;" vertex="1" parent="1">
          <mxGeometry x="200" y="2060" width="80" height="15" as="geometry" />
        </mxCell>
        <mxCell id="9KH8UP5y82EJrN9jIxo6-353" value="Contact" style="rounded=1;whiteSpace=wrap;html=1;strokeWidth=3;" vertex="1" parent="1">
          <mxGeometry x="200" y="2080" width="80" height="15" as="geometry" />
        </mxCell>
        <mxCell id="9KH8UP5y82EJrN9jIxo6-354" value="Landing Page Contact Text" style="rounded=1;whiteSpace=wrap;html=1;" vertex="1" parent="1">
          <mxGeometry x="320" y="2060" width="330" height="270" as="geometry" />
        </mxCell>
        <mxCell id="9KH8UP5y82EJrN9jIxo6-355" value="" style="rounded=0;whiteSpace=wrap;html=1;" vertex="1" parent="1">
          <mxGeometry x="40" y="2440" width="760" height="430" as="geometry" />
        </mxCell>
        <mxCell id="9KH8UP5y82EJrN9jIxo6-356" value="" style="rounded=0;whiteSpace=wrap;html=1;" vertex="1" parent="1">
          <mxGeometry x="160" y="2440" width="520" height="430" as="geometry" />
        </mxCell>
        <mxCell id="9KH8UP5y82EJrN9jIxo6-357" value="Instrument Synchronizer" style="rounded=1;whiteSpace=wrap;html=1;" vertex="1" parent="1">
          <mxGeometry x="200" y="2450" width="80" height="30" as="geometry" />
        </mxCell>
        <mxCell id="9KH8UP5y82EJrN9jIxo6-358" value="" style="rounded=1;whiteSpace=wrap;html=1;" vertex="1" parent="1">
          <mxGeometry x="180" y="2460" width="10" height="10" as="geometry" />
        </mxCell>
        <mxCell id="9KH8UP5y82EJrN9jIxo6-359" value="Instrument Synchronizer" style="rounded=1;whiteSpace=wrap;html=1;strokeWidth=3;" vertex="1" parent="1">
          <mxGeometry x="374" y="2450" width="80" height="30" as="geometry" />
        </mxCell>
        <mxCell id="9KH8UP5y82EJrN9jIxo6-360" value="Metronome Generator" style="rounded=1;whiteSpace=wrap;html=1;strokeWidth=1;" vertex="1" parent="1">
          <mxGeometry x="470" y="2450" width="80" height="30" as="geometry" />
        </mxCell>
        <mxCell id="9KH8UP5y82EJrN9jIxo6-361" value="&lt;p style=&quot;line-height: 220%&quot;&gt;Register&lt;/p&gt;" style="rounded=1;whiteSpace=wrap;html=1;" vertex="1" parent="1">
          <mxGeometry x="570" y="2465" width="80" height="15" as="geometry" />
        </mxCell>
        <mxCell id="9KH8UP5y82EJrN9jIxo6-362" value="LogIn" style="rounded=1;whiteSpace=wrap;html=1;" vertex="1" parent="1">
          <mxGeometry x="570" y="2450" width="80" height="15" as="geometry" />
        </mxCell>
        <mxCell id="9KH8UP5y82EJrN9jIxo6-363" value="About" style="rounded=1;whiteSpace=wrap;html=1;strokeWidth=3;" vertex="1" parent="1">
          <mxGeometry x="200" y="2540" width="80" height="15" as="geometry" />
        </mxCell>
        <mxCell id="9KH8UP5y82EJrN9jIxo6-364" value="How To" style="rounded=1;whiteSpace=wrap;html=1;" vertex="1" parent="1">
          <mxGeometry x="200" y="2560" width="80" height="15" as="geometry" />
        </mxCell>
        <mxCell id="9KH8UP5y82EJrN9jIxo6-365" value="Synchronizer About Text" style="rounded=1;whiteSpace=wrap;html=1;" vertex="1" parent="1">
          <mxGeometry x="320" y="2540" width="330" height="270" as="geometry" />
        </mxCell>
        <mxCell id="9KH8UP5y82EJrN9jIxo6-366" value="" style="rounded=0;whiteSpace=wrap;html=1;" vertex="1" parent="1">
          <mxGeometry x="40" y="2920" width="760" height="430" as="geometry" />
        </mxCell>
        <mxCell id="9KH8UP5y82EJrN9jIxo6-367" value="" style="rounded=0;whiteSpace=wrap;html=1;" vertex="1" parent="1">
          <mxGeometry x="160" y="2920" width="520" height="430" as="geometry" />
        </mxCell>
        <mxCell id="9KH8UP5y82EJrN9jIxo6-368" value="Instrument Synchronizer" style="rounded=1;whiteSpace=wrap;html=1;" vertex="1" parent="1">
          <mxGeometry x="200" y="2930" width="80" height="30" as="geometry" />
        </mxCell>
        <mxCell id="9KH8UP5y82EJrN9jIxo6-369" value="" style="rounded=1;whiteSpace=wrap;html=1;" vertex="1" parent="1">
          <mxGeometry x="180" y="2940" width="10" height="10" as="geometry" />
        </mxCell>
        <mxCell id="9KH8UP5y82EJrN9jIxo6-370" value="Instrument Synchronizer" style="rounded=1;whiteSpace=wrap;html=1;strokeWidth=3;" vertex="1" parent="1">
          <mxGeometry x="374" y="2930" width="80" height="30" as="geometry" />
        </mxCell>
        <mxCell id="9KH8UP5y82EJrN9jIxo6-371" value="Metronome Generator" style="rounded=1;whiteSpace=wrap;html=1;strokeWidth=1;" vertex="1" parent="1">
          <mxGeometry x="470" y="2930" width="80" height="30" as="geometry" />
        </mxCell>
        <mxCell id="9KH8UP5y82EJrN9jIxo6-372" value="&lt;p style=&quot;line-height: 220%&quot;&gt;Register&lt;/p&gt;" style="rounded=1;whiteSpace=wrap;html=1;" vertex="1" parent="1">
          <mxGeometry x="570" y="2945" width="80" height="15" as="geometry" />
        </mxCell>
        <mxCell id="9KH8UP5y82EJrN9jIxo6-373" value="LogIn" style="rounded=1;whiteSpace=wrap;html=1;" vertex="1" parent="1">
          <mxGeometry x="570" y="2930" width="80" height="15" as="geometry" />
        </mxCell>
        <mxCell id="9KH8UP5y82EJrN9jIxo6-374" value="About" style="rounded=1;whiteSpace=wrap;html=1;" vertex="1" parent="1">
          <mxGeometry x="200" y="3020" width="80" height="15" as="geometry" />
        </mxCell>
        <mxCell id="9KH8UP5y82EJrN9jIxo6-375" value="How To" style="rounded=1;whiteSpace=wrap;html=1;strokeWidth=3;" vertex="1" parent="1">
          <mxGeometry x="200" y="3040" width="80" height="15" as="geometry" />
        </mxCell>
        <mxCell id="9KH8UP5y82EJrN9jIxo6-376" value="Synchronizer How To Text" style="rounded=1;whiteSpace=wrap;html=1;" vertex="1" parent="1">
          <mxGeometry x="320" y="3020" width="330" height="270" as="geometry" />
        </mxCell>
        <mxCell id="9KH8UP5y82EJrN9jIxo6-377" value="" style="rounded=0;whiteSpace=wrap;html=1;" vertex="1" parent="1">
          <mxGeometry x="40" y="3400" width="760" height="430" as="geometry" />
        </mxCell>
        <mxCell id="9KH8UP5y82EJrN9jIxo6-378" value="" style="rounded=0;whiteSpace=wrap;html=1;" vertex="1" parent="1">
          <mxGeometry x="160" y="3400" width="520" height="430" as="geometry" />
        </mxCell>
        <mxCell id="9KH8UP5y82EJrN9jIxo6-379" value="Instrument Synchronizer" style="rounded=1;whiteSpace=wrap;html=1;" vertex="1" parent="1">
          <mxGeometry x="200" y="3410" width="80" height="30" as="geometry" />
        </mxCell>
        <mxCell id="9KH8UP5y82EJrN9jIxo6-380" value="" style="rounded=1;whiteSpace=wrap;html=1;" vertex="1" parent="1">
          <mxGeometry x="180" y="3420" width="10" height="10" as="geometry" />
        </mxCell>
        <mxCell id="9KH8UP5y82EJrN9jIxo6-381" value="Instrument Synchronizer" style="rounded=1;whiteSpace=wrap;html=1;strokeWidth=3;" vertex="1" parent="1">
          <mxGeometry x="374" y="3410" width="80" height="30" as="geometry" />
        </mxCell>
        <mxCell id="9KH8UP5y82EJrN9jIxo6-382" value="Metronome Generator" style="rounded=1;whiteSpace=wrap;html=1;strokeWidth=1;" vertex="1" parent="1">
          <mxGeometry x="470" y="3410" width="80" height="30" as="geometry" />
        </mxCell>
        <mxCell id="9KH8UP5y82EJrN9jIxo6-385" value="About" style="rounded=1;whiteSpace=wrap;html=1;" vertex="1" parent="1">
          <mxGeometry x="200" y="3500" width="80" height="15" as="geometry" />
        </mxCell>
        <mxCell id="9KH8UP5y82EJrN9jIxo6-386" value="How To" style="rounded=1;whiteSpace=wrap;html=1;strokeWidth=1;" vertex="1" parent="1">
          <mxGeometry x="200" y="3520" width="80" height="15" as="geometry" />
        </mxCell>
        <mxCell id="9KH8UP5y82EJrN9jIxo6-387" value="" style="rounded=1;whiteSpace=wrap;html=1;" vertex="1" parent="1">
          <mxGeometry x="320" y="3500" width="330" height="270" as="geometry" />
        </mxCell>
        <mxCell id="9KH8UP5y82EJrN9jIxo6-388" value="&lt;div&gt;Logged as&lt;/div&gt;&lt;div&gt;Username&lt;br&gt;&lt;/div&gt;" style="rounded=1;whiteSpace=wrap;html=1;" vertex="1" parent="1">
          <mxGeometry x="570" y="3410" width="80" height="30" as="geometry" />
        </mxCell>
        <mxCell id="9KH8UP5y82EJrN9jIxo6-300" value="&lt;p style=&quot;line-height: 220%&quot;&gt;Register&lt;/p&gt;" style="rounded=1;whiteSpace=wrap;html=1;strokeWidth=3;" vertex="1" parent="1">
          <mxGeometry x="570" y="545" width="80" height="15" as="geometry" />
        </mxCell>
        <mxCell id="9KH8UP5y82EJrN9jIxo6-389" value="My Projects" style="rounded=1;whiteSpace=wrap;html=1;strokeWidth=3;" vertex="1" parent="1">
          <mxGeometry x="200" y="3540" width="80" height="15" as="geometry" />
        </mxCell>
        <mxCell id="9KH8UP5y82EJrN9jIxo6-413" value="" style="rounded=0;whiteSpace=wrap;html=1;" vertex="1" parent="1">
          <mxGeometry x="40" y="4360" width="760" height="430" as="geometry" />
        </mxCell>
        <mxCell id="9KH8UP5y82EJrN9jIxo6-414" value="" style="rounded=0;whiteSpace=wrap;html=1;" vertex="1" parent="1">
          <mxGeometry x="160" y="4360" width="520" height="430" as="geometry" />
        </mxCell>
        <mxCell id="9KH8UP5y82EJrN9jIxo6-415" value="Instrument Synchronizer" style="rounded=1;whiteSpace=wrap;html=1;" vertex="1" parent="1">
          <mxGeometry x="200" y="4370" width="80" height="30" as="geometry" />
        </mxCell>
        <mxCell id="9KH8UP5y82EJrN9jIxo6-416" value="" style="rounded=1;whiteSpace=wrap;html=1;" vertex="1" parent="1">
          <mxGeometry x="180" y="4380" width="10" height="10" as="geometry" />
        </mxCell>
        <mxCell id="9KH8UP5y82EJrN9jIxo6-417" value="Instrument Synchronizer" style="rounded=1;whiteSpace=wrap;html=1;strokeWidth=3;" vertex="1" parent="1">
          <mxGeometry x="374" y="4370" width="80" height="30" as="geometry" />
        </mxCell>
        <mxCell id="9KH8UP5y82EJrN9jIxo6-418" value="Metronome Generator" style="rounded=1;whiteSpace=wrap;html=1;strokeWidth=1;" vertex="1" parent="1">
          <mxGeometry x="470" y="4370" width="80" height="30" as="geometry" />
        </mxCell>
        <mxCell id="9KH8UP5y82EJrN9jIxo6-419" value="Project Title" style="rounded=1;whiteSpace=wrap;html=1;" vertex="1" parent="1">
          <mxGeometry x="200" y="4460" width="80" height="15" as="geometry" />
        </mxCell>
        <mxCell id="9KH8UP5y82EJrN9jIxo6-420" value="Description" style="rounded=1;whiteSpace=wrap;html=1;strokeWidth=1;" vertex="1" parent="1">
          <mxGeometry x="200" y="4480" width="80" height="15" as="geometry" />
        </mxCell>
        <mxCell id="9KH8UP5y82EJrN9jIxo6-421" value="" style="rounded=1;whiteSpace=wrap;html=1;" vertex="1" parent="1">
          <mxGeometry x="320" y="4460" width="330" height="270" as="geometry" />
        </mxCell>
        <mxCell id="9KH8UP5y82EJrN9jIxo6-422" value="&lt;div&gt;Logged as&lt;/div&gt;&lt;div&gt;Username&lt;br&gt;&lt;/div&gt;" style="rounded=1;whiteSpace=wrap;html=1;" vertex="1" parent="1">
          <mxGeometry x="570" y="4370" width="80" height="30" as="geometry" />
        </mxCell>
        <mxCell id="9KH8UP5y82EJrN9jIxo6-423" value="BPM" style="rounded=1;whiteSpace=wrap;html=1;strokeWidth=1;" vertex="1" parent="1">
          <mxGeometry x="200" y="4500" width="80" height="15" as="geometry" />
        </mxCell>
        <mxCell id="9KH8UP5y82EJrN9jIxo6-425" value="Instrument" style="rounded=0;whiteSpace=wrap;html=1;strokeWidth=1;" vertex="1" parent="1">
          <mxGeometry x="320" y="4527.5" width="80" height="15" as="geometry" />
        </mxCell>
        <mxCell id="9KH8UP5y82EJrN9jIxo6-427" value="Identifier" style="rounded=0;whiteSpace=wrap;html=1;strokeWidth=1;" vertex="1" parent="1">
          <mxGeometry x="400" y="4527.5" width="80" height="15" as="geometry" />
        </mxCell>
        <mxCell id="9KH8UP5y82EJrN9jIxo6-428" value="Pitch" style="rounded=0;whiteSpace=wrap;html=1;strokeWidth=1;" vertex="1" parent="1">
          <mxGeometry x="480" y="4527.5" width="60" height="15" as="geometry" />
        </mxCell>
        <mxCell id="9KH8UP5y82EJrN9jIxo6-429" value="Author" style="rounded=0;whiteSpace=wrap;html=1;strokeWidth=1;" vertex="1" parent="1">
          <mxGeometry x="540" y="4527.5" width="60" height="15" as="geometry" />
        </mxCell>
        <mxCell id="9KH8UP5y82EJrN9jIxo6-430" value="Delete" style="rounded=0;whiteSpace=wrap;html=1;strokeWidth=1;" vertex="1" parent="1">
          <mxGeometry x="600" y="4527.5" width="50" height="15" as="geometry" />
        </mxCell>
        <mxCell id="9KH8UP5y82EJrN9jIxo6-431" value="I1" style="rounded=0;whiteSpace=wrap;html=1;strokeWidth=1;" vertex="1" parent="1">
          <mxGeometry x="320" y="4542.5" width="80" height="50" as="geometry" />
        </mxCell>
        <mxCell id="9KH8UP5y82EJrN9jIxo6-433" value="1" style="rounded=0;whiteSpace=wrap;html=1;strokeWidth=1;" vertex="1" parent="1">
          <mxGeometry x="400" y="4542.5" width="80" height="50" as="geometry" />
        </mxCell>
        <mxCell id="9KH8UP5y82EJrN9jIxo6-434" value="A" style="rounded=0;whiteSpace=wrap;html=1;strokeWidth=1;" vertex="1" parent="1">
          <mxGeometry x="480" y="4542.5" width="60" height="50" as="geometry" />
        </mxCell>
        <mxCell id="9KH8UP5y82EJrN9jIxo6-435" value="A1" style="rounded=0;whiteSpace=wrap;html=1;strokeWidth=1;" vertex="1" parent="1">
          <mxGeometry x="540" y="4542.5" width="60" height="50" as="geometry" />
        </mxCell>
        <mxCell id="9KH8UP5y82EJrN9jIxo6-436" value="X" style="rounded=0;whiteSpace=wrap;html=1;strokeWidth=1;" vertex="1" parent="1">
          <mxGeometry x="600" y="4542.5" width="50" height="50" as="geometry" />
        </mxCell>
        <mxCell id="9KH8UP5y82EJrN9jIxo6-437" value="I2" style="rounded=0;whiteSpace=wrap;html=1;strokeWidth=1;" vertex="1" parent="1">
          <mxGeometry x="320" y="4592.5" width="80" height="30" as="geometry" />
        </mxCell>
        <mxCell id="9KH8UP5y82EJrN9jIxo6-439" value="2.1" style="rounded=0;whiteSpace=wrap;html=1;strokeWidth=1;" vertex="1" parent="1">
          <mxGeometry x="400" y="4592.5" width="80" height="30" as="geometry" />
        </mxCell>
        <mxCell id="9KH8UP5y82EJrN9jIxo6-440" value="D" style="rounded=0;whiteSpace=wrap;html=1;strokeWidth=1;" vertex="1" parent="1">
          <mxGeometry x="480" y="4592.5" width="60" height="30" as="geometry" />
        </mxCell>
        <mxCell id="9KH8UP5y82EJrN9jIxo6-441" value="A2" style="rounded=0;whiteSpace=wrap;html=1;strokeWidth=1;" vertex="1" parent="1">
          <mxGeometry x="540" y="4592.5" width="60" height="30" as="geometry" />
        </mxCell>
        <mxCell id="9KH8UP5y82EJrN9jIxo6-442" value="X" style="rounded=0;whiteSpace=wrap;html=1;strokeWidth=1;" vertex="1" parent="1">
          <mxGeometry x="600" y="4592.5" width="50" height="30" as="geometry" />
        </mxCell>
        <mxCell id="9KH8UP5y82EJrN9jIxo6-445" value="New Project" style="rounded=1;whiteSpace=wrap;html=1;strokeWidth=1;" vertex="1" parent="1">
          <mxGeometry x="550" y="3540" width="80" height="15" as="geometry" />
        </mxCell>
        <mxCell id="9KH8UP5y82EJrN9jIxo6-447" value="Title" style="rounded=0;whiteSpace=wrap;html=1;strokeWidth=1;" vertex="1" parent="1">
          <mxGeometry x="320" y="3570" width="30" height="15" as="geometry" />
        </mxCell>
        <mxCell id="9KH8UP5y82EJrN9jIxo6-448" value="Description" style="rounded=0;whiteSpace=wrap;html=1;strokeWidth=1;" vertex="1" parent="1">
          <mxGeometry x="350" y="3570" width="70" height="15" as="geometry" />
        </mxCell>
        <mxCell id="9KH8UP5y82EJrN9jIxo6-449" value="Instruments" style="rounded=0;whiteSpace=wrap;html=1;strokeWidth=1;" vertex="1" parent="1">
          <mxGeometry x="420" y="3570" width="80" height="15" as="geometry" />
        </mxCell>
        <mxCell id="9KH8UP5y82EJrN9jIxo6-450" value="Edited" style="rounded=0;whiteSpace=wrap;html=1;strokeWidth=1;" vertex="1" parent="1">
          <mxGeometry x="500" y="3570" width="50" height="15" as="geometry" />
        </mxCell>
        <mxCell id="9KH8UP5y82EJrN9jIxo6-451" value="Created" style="rounded=0;whiteSpace=wrap;html=1;strokeWidth=1;" vertex="1" parent="1">
          <mxGeometry x="550" y="3570" width="50" height="15" as="geometry" />
        </mxCell>
        <mxCell id="9KH8UP5y82EJrN9jIxo6-452" value="Delete" style="rounded=0;whiteSpace=wrap;html=1;strokeWidth=1;" vertex="1" parent="1">
          <mxGeometry x="600" y="3570" width="50" height="15" as="geometry" />
        </mxCell>
        <mxCell id="9KH8UP5y82EJrN9jIxo6-453" value="T1" style="rounded=0;whiteSpace=wrap;html=1;strokeWidth=1;" vertex="1" parent="1">
          <mxGeometry x="320" y="3585" width="30" height="50" as="geometry" />
        </mxCell>
        <mxCell id="9KH8UP5y82EJrN9jIxo6-454" value="D1" style="rounded=0;whiteSpace=wrap;html=1;strokeWidth=1;" vertex="1" parent="1">
          <mxGeometry x="350" y="3585" width="70" height="50" as="geometry" />
        </mxCell>
        <mxCell id="9KH8UP5y82EJrN9jIxo6-455" value="&lt;div&gt;I1&lt;/div&gt;&lt;div&gt;I2&lt;/div&gt;&lt;div&gt;I3&lt;br&gt;&lt;/div&gt;" style="rounded=0;whiteSpace=wrap;html=1;strokeWidth=1;" vertex="1" parent="1">
          <mxGeometry x="420" y="3585" width="80" height="50" as="geometry" />
        </mxCell>
        <mxCell id="9KH8UP5y82EJrN9jIxo6-456" value="11.11.21" style="rounded=0;whiteSpace=wrap;html=1;strokeWidth=1;" vertex="1" parent="1">
          <mxGeometry x="500" y="3585" width="50" height="50" as="geometry" />
        </mxCell>
        <mxCell id="9KH8UP5y82EJrN9jIxo6-457" value="11.11.21" style="rounded=0;whiteSpace=wrap;html=1;strokeWidth=1;" vertex="1" parent="1">
          <mxGeometry x="550" y="3585" width="50" height="50" as="geometry" />
        </mxCell>
        <mxCell id="9KH8UP5y82EJrN9jIxo6-458" value="X" style="rounded=0;whiteSpace=wrap;html=1;strokeWidth=1;" vertex="1" parent="1">
          <mxGeometry x="600" y="3585" width="50" height="50" as="geometry" />
        </mxCell>
        <mxCell id="9KH8UP5y82EJrN9jIxo6-459" value="T2" style="rounded=0;whiteSpace=wrap;html=1;strokeWidth=1;" vertex="1" parent="1">
          <mxGeometry x="320" y="3635" width="30" height="30" as="geometry" />
        </mxCell>
        <mxCell id="9KH8UP5y82EJrN9jIxo6-460" value="D2" style="rounded=0;whiteSpace=wrap;html=1;strokeWidth=1;" vertex="1" parent="1">
          <mxGeometry x="350" y="3635" width="70" height="30" as="geometry" />
        </mxCell>
        <mxCell id="9KH8UP5y82EJrN9jIxo6-461" value="&lt;div&gt;I1&lt;/div&gt;&lt;div&gt;I2&lt;/div&gt;" style="rounded=0;whiteSpace=wrap;html=1;strokeWidth=1;" vertex="1" parent="1">
          <mxGeometry x="420" y="3635" width="80" height="30" as="geometry" />
        </mxCell>
        <mxCell id="9KH8UP5y82EJrN9jIxo6-462" value="10.09.21" style="rounded=0;whiteSpace=wrap;html=1;strokeWidth=1;" vertex="1" parent="1">
          <mxGeometry x="500" y="3635" width="50" height="30" as="geometry" />
        </mxCell>
        <mxCell id="9KH8UP5y82EJrN9jIxo6-463" value="11.09.21" style="rounded=0;whiteSpace=wrap;html=1;strokeWidth=1;" vertex="1" parent="1">
          <mxGeometry x="550" y="3635" width="50" height="30" as="geometry" />
        </mxCell>
        <mxCell id="9KH8UP5y82EJrN9jIxo6-464" value="X" style="rounded=0;whiteSpace=wrap;html=1;strokeWidth=1;" vertex="1" parent="1">
          <mxGeometry x="600" y="3635" width="50" height="30" as="geometry" />
        </mxCell>
        <mxCell id="9KH8UP5y82EJrN9jIxo6-483" value="" style="rounded=0;whiteSpace=wrap;html=1;" vertex="1" parent="1">
          <mxGeometry x="40" y="3880" width="760" height="430" as="geometry" />
        </mxCell>
        <mxCell id="9KH8UP5y82EJrN9jIxo6-484" value="" style="rounded=0;whiteSpace=wrap;html=1;" vertex="1" parent="1">
          <mxGeometry x="160" y="3880" width="520" height="430" as="geometry" />
        </mxCell>
        <mxCell id="9KH8UP5y82EJrN9jIxo6-485" value="Instrument Synchronizer" style="rounded=1;whiteSpace=wrap;html=1;" vertex="1" parent="1">
          <mxGeometry x="200" y="3890" width="80" height="30" as="geometry" />
        </mxCell>
        <mxCell id="9KH8UP5y82EJrN9jIxo6-486" value="" style="rounded=1;whiteSpace=wrap;html=1;" vertex="1" parent="1">
          <mxGeometry x="180" y="3900" width="10" height="10" as="geometry" />
        </mxCell>
        <mxCell id="9KH8UP5y82EJrN9jIxo6-487" value="Instrument Synchronizer" style="rounded=1;whiteSpace=wrap;html=1;strokeWidth=3;" vertex="1" parent="1">
          <mxGeometry x="374" y="3890" width="80" height="30" as="geometry" />
        </mxCell>
        <mxCell id="9KH8UP5y82EJrN9jIxo6-488" value="Metronome Generator" style="rounded=1;whiteSpace=wrap;html=1;strokeWidth=1;" vertex="1" parent="1">
          <mxGeometry x="470" y="3890" width="80" height="30" as="geometry" />
        </mxCell>
        <mxCell id="9KH8UP5y82EJrN9jIxo6-489" value="Back" style="rounded=1;whiteSpace=wrap;html=1;" vertex="1" parent="1">
          <mxGeometry x="200" y="3980" width="80" height="15" as="geometry" />
        </mxCell>
        <mxCell id="9KH8UP5y82EJrN9jIxo6-491" value="" style="rounded=1;whiteSpace=wrap;html=1;" vertex="1" parent="1">
          <mxGeometry x="320" y="3980" width="330" height="270" as="geometry" />
        </mxCell>
        <mxCell id="9KH8UP5y82EJrN9jIxo6-492" value="&lt;div&gt;Logged as&lt;/div&gt;&lt;div&gt;Username&lt;br&gt;&lt;/div&gt;" style="rounded=1;whiteSpace=wrap;html=1;" vertex="1" parent="1">
          <mxGeometry x="570" y="3890" width="80" height="30" as="geometry" />
        </mxCell>
        <mxCell id="9KH8UP5y82EJrN9jIxo6-517" value="Title" style="rounded=1;whiteSpace=wrap;html=1;" vertex="1" parent="1">
          <mxGeometry x="445" y="4040" width="80" height="15" as="geometry" />
        </mxCell>
        <mxCell id="9KH8UP5y82EJrN9jIxo6-518" value="BPM" style="rounded=1;whiteSpace=wrap;html=1;" vertex="1" parent="1">
          <mxGeometry x="445" y="4070" width="80" height="15" as="geometry" />
        </mxCell>
        <mxCell id="9KH8UP5y82EJrN9jIxo6-519" value="Description" style="rounded=1;whiteSpace=wrap;html=1;" vertex="1" parent="1">
          <mxGeometry x="445" y="4100" width="80" height="15" as="geometry" />
        </mxCell>
        <mxCell id="9KH8UP5y82EJrN9jIxo6-520" value="Create" style="rounded=1;whiteSpace=wrap;html=1;" vertex="1" parent="1">
          <mxGeometry x="445" y="4130" width="80" height="15" as="geometry" />
        </mxCell>
        <mxCell id="9KH8UP5y82EJrN9jIxo6-524" value="Add Recording" style="rounded=1;whiteSpace=wrap;html=1;strokeWidth=1;" vertex="1" parent="1">
          <mxGeometry x="540" y="4495" width="90" height="15" as="geometry" />
        </mxCell>
        <mxCell id="9KH8UP5y82EJrN9jIxo6-525" value="Synchronize" style="rounded=1;whiteSpace=wrap;html=1;strokeWidth=1;" vertex="1" parent="1">
          <mxGeometry x="340" y="4495" width="80" height="15" as="geometry" />
        </mxCell>
        <mxCell id="9KH8UP5y82EJrN9jIxo6-527" value="" style="rounded=0;whiteSpace=wrap;html=1;" vertex="1" parent="1">
          <mxGeometry x="40" y="4840" width="760" height="430" as="geometry" />
        </mxCell>
        <mxCell id="9KH8UP5y82EJrN9jIxo6-528" value="" style="rounded=0;whiteSpace=wrap;html=1;" vertex="1" parent="1">
          <mxGeometry x="160" y="4840" width="520" height="430" as="geometry" />
        </mxCell>
        <mxCell id="9KH8UP5y82EJrN9jIxo6-529" value="Instrument Synchronizer" style="rounded=1;whiteSpace=wrap;html=1;" vertex="1" parent="1">
          <mxGeometry x="200" y="4850" width="80" height="30" as="geometry" />
        </mxCell>
        <mxCell id="9KH8UP5y82EJrN9jIxo6-530" value="" style="rounded=1;whiteSpace=wrap;html=1;" vertex="1" parent="1">
          <mxGeometry x="180" y="4860" width="10" height="10" as="geometry" />
        </mxCell>
        <mxCell id="9KH8UP5y82EJrN9jIxo6-531" value="Instrument Synchronizer" style="rounded=1;whiteSpace=wrap;html=1;strokeWidth=3;" vertex="1" parent="1">
          <mxGeometry x="374" y="4850" width="80" height="30" as="geometry" />
        </mxCell>
        <mxCell id="9KH8UP5y82EJrN9jIxo6-532" value="Metronome Generator" style="rounded=1;whiteSpace=wrap;html=1;strokeWidth=1;" vertex="1" parent="1">
          <mxGeometry x="470" y="4850" width="80" height="30" as="geometry" />
        </mxCell>
        <mxCell id="9KH8UP5y82EJrN9jIxo6-533" value="Back" style="rounded=1;whiteSpace=wrap;html=1;" vertex="1" parent="1">
          <mxGeometry x="200" y="4940" width="80" height="15" as="geometry" />
        </mxCell>
        <mxCell id="9KH8UP5y82EJrN9jIxo6-534" value="" style="rounded=1;whiteSpace=wrap;html=1;" vertex="1" parent="1">
          <mxGeometry x="320" y="4940" width="330" height="270" as="geometry" />
        </mxCell>
        <mxCell id="9KH8UP5y82EJrN9jIxo6-535" value="&lt;div&gt;Logged as&lt;/div&gt;&lt;div&gt;Username&lt;br&gt;&lt;/div&gt;" style="rounded=1;whiteSpace=wrap;html=1;" vertex="1" parent="1">
          <mxGeometry x="570" y="4850" width="80" height="30" as="geometry" />
        </mxCell>
        <mxCell id="9KH8UP5y82EJrN9jIxo6-536" value="File" style="rounded=1;whiteSpace=wrap;html=1;" vertex="1" parent="1">
          <mxGeometry x="445" y="5000" width="80" height="15" as="geometry" />
        </mxCell>
        <mxCell id="9KH8UP5y82EJrN9jIxo6-537" value="Instrument" style="rounded=1;whiteSpace=wrap;html=1;" vertex="1" parent="1">
          <mxGeometry x="445" y="5030" width="80" height="15" as="geometry" />
        </mxCell>
        <mxCell id="9KH8UP5y82EJrN9jIxo6-538" value="Identifier" style="rounded=1;whiteSpace=wrap;html=1;" vertex="1" parent="1">
          <mxGeometry x="445" y="5060" width="80" height="15" as="geometry" />
        </mxCell>
        <mxCell id="9KH8UP5y82EJrN9jIxo6-539" value="Pitch" style="rounded=1;whiteSpace=wrap;html=1;" vertex="1" parent="1">
          <mxGeometry x="445" y="5090" width="80" height="15" as="geometry" />
        </mxCell>
        <mxCell id="9KH8UP5y82EJrN9jIxo6-540" value="Author" style="rounded=1;whiteSpace=wrap;html=1;" vertex="1" parent="1">
          <mxGeometry x="445" y="5120" width="80" height="15" as="geometry" />
        </mxCell>
        <mxCell id="9KH8UP5y82EJrN9jIxo6-541" value="Add" style="rounded=1;whiteSpace=wrap;html=1;" vertex="1" parent="1">
          <mxGeometry x="445" y="5150" width="80" height="15" as="geometry" />
        </mxCell>
        <mxCell id="9KH8UP5y82EJrN9jIxo6-542" value="" style="rounded=0;whiteSpace=wrap;html=1;" vertex="1" parent="1">
          <mxGeometry x="40" y="5320" width="760" height="430" as="geometry" />
        </mxCell>
        <mxCell id="9KH8UP5y82EJrN9jIxo6-543" value="" style="rounded=0;whiteSpace=wrap;html=1;" vertex="1" parent="1">
          <mxGeometry x="160" y="5320" width="520" height="430" as="geometry" />
        </mxCell>
        <mxCell id="9KH8UP5y82EJrN9jIxo6-544" value="Instrument Synchronizer" style="rounded=1;whiteSpace=wrap;html=1;" vertex="1" parent="1">
          <mxGeometry x="200" y="5330" width="80" height="30" as="geometry" />
        </mxCell>
        <mxCell id="9KH8UP5y82EJrN9jIxo6-545" value="" style="rounded=1;whiteSpace=wrap;html=1;" vertex="1" parent="1">
          <mxGeometry x="180" y="5340" width="10" height="10" as="geometry" />
        </mxCell>
        <mxCell id="9KH8UP5y82EJrN9jIxo6-546" value="Instrument Synchronizer" style="rounded=1;whiteSpace=wrap;html=1;strokeWidth=3;" vertex="1" parent="1">
          <mxGeometry x="374" y="5330" width="80" height="30" as="geometry" />
        </mxCell>
        <mxCell id="9KH8UP5y82EJrN9jIxo6-547" value="Metronome Generator" style="rounded=1;whiteSpace=wrap;html=1;strokeWidth=1;" vertex="1" parent="1">
          <mxGeometry x="470" y="5330" width="80" height="30" as="geometry" />
        </mxCell>
        <mxCell id="9KH8UP5y82EJrN9jIxo6-548" value="Back" style="rounded=1;whiteSpace=wrap;html=1;" vertex="1" parent="1">
          <mxGeometry x="200" y="5420" width="80" height="15" as="geometry" />
        </mxCell>
        <mxCell id="9KH8UP5y82EJrN9jIxo6-549" value="" style="rounded=1;whiteSpace=wrap;html=1;" vertex="1" parent="1">
          <mxGeometry x="320" y="5420" width="330" height="270" as="geometry" />
        </mxCell>
        <mxCell id="9KH8UP5y82EJrN9jIxo6-550" value="&lt;div&gt;Logged as&lt;/div&gt;&lt;div&gt;Username&lt;br&gt;&lt;/div&gt;" style="rounded=1;whiteSpace=wrap;html=1;" vertex="1" parent="1">
          <mxGeometry x="570" y="5330" width="80" height="30" as="geometry" />
        </mxCell>
        <mxCell id="9KH8UP5y82EJrN9jIxo6-551" value="Index" style="rounded=1;whiteSpace=wrap;html=1;" vertex="1" parent="1">
          <mxGeometry x="445" y="5497.5" width="80" height="15" as="geometry" />
        </mxCell>
        <mxCell id="9KH8UP5y82EJrN9jIxo6-552" value="File" style="rounded=1;whiteSpace=wrap;html=1;" vertex="1" parent="1">
          <mxGeometry x="445" y="5527.5" width="80" height="15" as="geometry" />
        </mxCell>
        <mxCell id="9KH8UP5y82EJrN9jIxo6-557" value="Cut" style="rounded=1;whiteSpace=wrap;html=1;" vertex="1" parent="1">
          <mxGeometry x="445" y="5557.5" width="80" height="15" as="geometry" />
        </mxCell>
        <mxCell id="9KH8UP5y82EJrN9jIxo6-571" value="" style="rounded=0;whiteSpace=wrap;html=1;" vertex="1" parent="1">
          <mxGeometry x="40" y="5800" width="760" height="430" as="geometry" />
        </mxCell>
        <mxCell id="9KH8UP5y82EJrN9jIxo6-572" value="" style="rounded=0;whiteSpace=wrap;html=1;" vertex="1" parent="1">
          <mxGeometry x="160" y="5800" width="520" height="430" as="geometry" />
        </mxCell>
        <mxCell id="9KH8UP5y82EJrN9jIxo6-573" value="Instrument Synchronizer" style="rounded=1;whiteSpace=wrap;html=1;" vertex="1" parent="1">
          <mxGeometry x="200" y="5810" width="80" height="30" as="geometry" />
        </mxCell>
        <mxCell id="9KH8UP5y82EJrN9jIxo6-574" value="" style="rounded=1;whiteSpace=wrap;html=1;" vertex="1" parent="1">
          <mxGeometry x="180" y="5820" width="10" height="10" as="geometry" />
        </mxCell>
        <mxCell id="9KH8UP5y82EJrN9jIxo6-575" value="Instrument Synchronizer" style="rounded=1;whiteSpace=wrap;html=1;strokeWidth=1;" vertex="1" parent="1">
          <mxGeometry x="374" y="5810" width="80" height="30" as="geometry" />
        </mxCell>
        <mxCell id="9KH8UP5y82EJrN9jIxo6-576" value="Metronome Generator" style="rounded=1;whiteSpace=wrap;html=1;strokeWidth=3;" vertex="1" parent="1">
          <mxGeometry x="470" y="5810" width="80" height="30" as="geometry" />
        </mxCell>
        <mxCell id="9KH8UP5y82EJrN9jIxo6-577" value="&lt;p style=&quot;line-height: 220%&quot;&gt;Register&lt;/p&gt;" style="rounded=1;whiteSpace=wrap;html=1;" vertex="1" parent="1">
          <mxGeometry x="570" y="5825" width="80" height="15" as="geometry" />
        </mxCell>
        <mxCell id="9KH8UP5y82EJrN9jIxo6-578" value="LogIn" style="rounded=1;whiteSpace=wrap;html=1;" vertex="1" parent="1">
          <mxGeometry x="570" y="5810" width="80" height="15" as="geometry" />
        </mxCell>
        <mxCell id="9KH8UP5y82EJrN9jIxo6-579" value="About" style="rounded=1;whiteSpace=wrap;html=1;strokeWidth=3;" vertex="1" parent="1">
          <mxGeometry x="200" y="5900" width="80" height="15" as="geometry" />
        </mxCell>
        <mxCell id="9KH8UP5y82EJrN9jIxo6-580" value="How To" style="rounded=1;whiteSpace=wrap;html=1;" vertex="1" parent="1">
          <mxGeometry x="200" y="5920" width="80" height="15" as="geometry" />
        </mxCell>
        <mxCell id="9KH8UP5y82EJrN9jIxo6-581" value="Metronome Generator About Text" style="rounded=1;whiteSpace=wrap;html=1;" vertex="1" parent="1">
          <mxGeometry x="320" y="5900" width="330" height="270" as="geometry" />
        </mxCell>
        <mxCell id="9KH8UP5y82EJrN9jIxo6-582" value="" style="rounded=0;whiteSpace=wrap;html=1;" vertex="1" parent="1">
          <mxGeometry x="40" y="6280" width="760" height="430" as="geometry" />
        </mxCell>
        <mxCell id="9KH8UP5y82EJrN9jIxo6-583" value="" style="rounded=0;whiteSpace=wrap;html=1;" vertex="1" parent="1">
          <mxGeometry x="160" y="6280" width="520" height="430" as="geometry" />
        </mxCell>
        <mxCell id="9KH8UP5y82EJrN9jIxo6-584" value="Instrument Synchronizer" style="rounded=1;whiteSpace=wrap;html=1;" vertex="1" parent="1">
          <mxGeometry x="200" y="6290" width="80" height="30" as="geometry" />
        </mxCell>
        <mxCell id="9KH8UP5y82EJrN9jIxo6-585" value="" style="rounded=1;whiteSpace=wrap;html=1;" vertex="1" parent="1">
          <mxGeometry x="180" y="6300" width="10" height="10" as="geometry" />
        </mxCell>
        <mxCell id="9KH8UP5y82EJrN9jIxo6-586" value="Instrument Synchronizer" style="rounded=1;whiteSpace=wrap;html=1;strokeWidth=1;" vertex="1" parent="1">
          <mxGeometry x="374" y="6290" width="80" height="30" as="geometry" />
        </mxCell>
        <mxCell id="9KH8UP5y82EJrN9jIxo6-587" value="Metronome Generator" style="rounded=1;whiteSpace=wrap;html=1;strokeWidth=3;" vertex="1" parent="1">
          <mxGeometry x="470" y="6290" width="80" height="30" as="geometry" />
        </mxCell>
        <mxCell id="9KH8UP5y82EJrN9jIxo6-588" value="&lt;p style=&quot;line-height: 220%&quot;&gt;Register&lt;/p&gt;" style="rounded=1;whiteSpace=wrap;html=1;" vertex="1" parent="1">
          <mxGeometry x="570" y="6305" width="80" height="15" as="geometry" />
        </mxCell>
        <mxCell id="9KH8UP5y82EJrN9jIxo6-589" value="LogIn" style="rounded=1;whiteSpace=wrap;html=1;" vertex="1" parent="1">
          <mxGeometry x="570" y="6290" width="80" height="15" as="geometry" />
        </mxCell>
        <mxCell id="9KH8UP5y82EJrN9jIxo6-590" value="About" style="rounded=1;whiteSpace=wrap;html=1;strokeWidth=1;" vertex="1" parent="1">
          <mxGeometry x="200" y="6380" width="80" height="15" as="geometry" />
        </mxCell>
        <mxCell id="9KH8UP5y82EJrN9jIxo6-591" value="How To" style="rounded=1;whiteSpace=wrap;html=1;strokeWidth=3;" vertex="1" parent="1">
          <mxGeometry x="200" y="6400" width="80" height="15" as="geometry" />
        </mxCell>
        <mxCell id="9KH8UP5y82EJrN9jIxo6-592" value="Metronome Generator How To Text" style="rounded=1;whiteSpace=wrap;html=1;" vertex="1" parent="1">
          <mxGeometry x="320" y="6380" width="330" height="270" as="geometry" />
        </mxCell>
        <mxCell id="9KH8UP5y82EJrN9jIxo6-593" value="Generate" style="rounded=1;whiteSpace=wrap;html=1;" vertex="1" parent="1">
          <mxGeometry x="200" y="5940" width="80" height="15" as="geometry" />
        </mxCell>
        <mxCell id="9KH8UP5y82EJrN9jIxo6-594" value="Generate" style="rounded=1;whiteSpace=wrap;html=1;strokeWidth=1;" vertex="1" parent="1">
          <mxGeometry x="200" y="6422" width="80" height="15" as="geometry" />
        </mxCell>
        <mxCell id="9KH8UP5y82EJrN9jIxo6-597" value="" style="rounded=0;whiteSpace=wrap;html=1;" vertex="1" parent="1">
          <mxGeometry x="40" y="6760" width="760" height="430" as="geometry" />
        </mxCell>
        <mxCell id="9KH8UP5y82EJrN9jIxo6-598" value="" style="rounded=0;whiteSpace=wrap;html=1;" vertex="1" parent="1">
          <mxGeometry x="160" y="6760" width="520" height="430" as="geometry" />
        </mxCell>
        <mxCell id="9KH8UP5y82EJrN9jIxo6-599" value="Instrument Synchronizer" style="rounded=1;whiteSpace=wrap;html=1;" vertex="1" parent="1">
          <mxGeometry x="200" y="6770" width="80" height="30" as="geometry" />
        </mxCell>
        <mxCell id="9KH8UP5y82EJrN9jIxo6-600" value="" style="rounded=1;whiteSpace=wrap;html=1;" vertex="1" parent="1">
          <mxGeometry x="180" y="6780" width="10" height="10" as="geometry" />
        </mxCell>
        <mxCell id="9KH8UP5y82EJrN9jIxo6-601" value="Instrument Synchronizer" style="rounded=1;whiteSpace=wrap;html=1;strokeWidth=1;" vertex="1" parent="1">
          <mxGeometry x="374" y="6770" width="80" height="30" as="geometry" />
        </mxCell>
        <mxCell id="9KH8UP5y82EJrN9jIxo6-602" value="Metronome Generator" style="rounded=1;whiteSpace=wrap;html=1;strokeWidth=3;" vertex="1" parent="1">
          <mxGeometry x="470" y="6770" width="80" height="30" as="geometry" />
        </mxCell>
        <mxCell id="9KH8UP5y82EJrN9jIxo6-603" value="&lt;p style=&quot;line-height: 220%&quot;&gt;Register&lt;/p&gt;" style="rounded=1;whiteSpace=wrap;html=1;" vertex="1" parent="1">
          <mxGeometry x="570" y="6785" width="80" height="15" as="geometry" />
        </mxCell>
        <mxCell id="9KH8UP5y82EJrN9jIxo6-604" value="LogIn" style="rounded=1;whiteSpace=wrap;html=1;" vertex="1" parent="1">
          <mxGeometry x="570" y="6770" width="80" height="15" as="geometry" />
        </mxCell>
        <mxCell id="9KH8UP5y82EJrN9jIxo6-605" value="About" style="rounded=1;whiteSpace=wrap;html=1;strokeWidth=1;" vertex="1" parent="1">
          <mxGeometry x="200" y="6860" width="80" height="15" as="geometry" />
        </mxCell>
        <mxCell id="9KH8UP5y82EJrN9jIxo6-606" value="How To" style="rounded=1;whiteSpace=wrap;html=1;strokeWidth=1;" vertex="1" parent="1">
          <mxGeometry x="200" y="6880" width="80" height="15" as="geometry" />
        </mxCell>
        <mxCell id="9KH8UP5y82EJrN9jIxo6-607" value="" style="rounded=1;whiteSpace=wrap;html=1;" vertex="1" parent="1">
          <mxGeometry x="320" y="6860" width="330" height="270" as="geometry" />
        </mxCell>
        <mxCell id="9KH8UP5y82EJrN9jIxo6-608" value="Generate" style="rounded=1;whiteSpace=wrap;html=1;strokeWidth=3;" vertex="1" parent="1">
          <mxGeometry x="200" y="6902" width="80" height="15" as="geometry" />
        </mxCell>
        <mxCell id="9KH8UP5y82EJrN9jIxo6-615" value="Frequency" style="rounded=1;whiteSpace=wrap;html=1;" vertex="1" parent="1">
          <mxGeometry x="440" y="6892.5" width="80" height="15" as="geometry" />
        </mxCell>
        <mxCell id="9KH8UP5y82EJrN9jIxo6-616" value="Duration" style="rounded=1;whiteSpace=wrap;html=1;" vertex="1" parent="1">
          <mxGeometry x="440" y="6922.5" width="80" height="15" as="geometry" />
        </mxCell>
        <mxCell id="9KH8UP5y82EJrN9jIxo6-617" value="BPM" style="rounded=1;whiteSpace=wrap;html=1;" vertex="1" parent="1">
          <mxGeometry x="440" y="6952.5" width="80" height="15" as="geometry" />
        </mxCell>
        <mxCell id="9KH8UP5y82EJrN9jIxo6-618" value="Stereo" style="rounded=1;whiteSpace=wrap;html=1;" vertex="1" parent="1">
          <mxGeometry x="440" y="6982.5" width="80" height="15" as="geometry" />
        </mxCell>
        <mxCell id="9KH8UP5y82EJrN9jIxo6-619" value="Tick" style="rounded=1;whiteSpace=wrap;html=1;" vertex="1" parent="1">
          <mxGeometry x="440" y="7012.5" width="80" height="15" as="geometry" />
        </mxCell>
        <mxCell id="9KH8UP5y82EJrN9jIxo6-620" value="Generate" style="rounded=1;whiteSpace=wrap;html=1;" vertex="1" parent="1">
          <mxGeometry x="440" y="7042.5" width="80" height="15" as="geometry" />
        </mxCell>
        <mxCell id="9KH8UP5y82EJrN9jIxo6-621" value="" style="rounded=0;whiteSpace=wrap;html=1;" vertex="1" parent="1">
          <mxGeometry x="40" y="7240" width="760" height="430" as="geometry" />
        </mxCell>
        <mxCell id="9KH8UP5y82EJrN9jIxo6-622" value="" style="rounded=0;whiteSpace=wrap;html=1;" vertex="1" parent="1">
          <mxGeometry x="160" y="7240" width="520" height="430" as="geometry" />
        </mxCell>
        <mxCell id="9KH8UP5y82EJrN9jIxo6-623" value="Instrument Synchronizer" style="rounded=1;whiteSpace=wrap;html=1;" vertex="1" parent="1">
          <mxGeometry x="200" y="7250" width="80" height="30" as="geometry" />
        </mxCell>
        <mxCell id="9KH8UP5y82EJrN9jIxo6-624" value="" style="rounded=1;whiteSpace=wrap;html=1;" vertex="1" parent="1">
          <mxGeometry x="180" y="7260" width="10" height="10" as="geometry" />
        </mxCell>
        <mxCell id="9KH8UP5y82EJrN9jIxo6-625" value="Instrument Synchronizer" style="rounded=1;whiteSpace=wrap;html=1;strokeWidth=1;" vertex="1" parent="1">
          <mxGeometry x="374" y="7250" width="80" height="30" as="geometry" />
        </mxCell>
        <mxCell id="9KH8UP5y82EJrN9jIxo6-626" value="Metronome Generator" style="rounded=1;whiteSpace=wrap;html=1;strokeWidth=3;" vertex="1" parent="1">
          <mxGeometry x="470" y="7250" width="80" height="30" as="geometry" />
        </mxCell>
        <mxCell id="9KH8UP5y82EJrN9jIxo6-627" value="&lt;p style=&quot;line-height: 220%&quot;&gt;Register&lt;/p&gt;" style="rounded=1;whiteSpace=wrap;html=1;" vertex="1" parent="1">
          <mxGeometry x="570" y="7265" width="80" height="15" as="geometry" />
        </mxCell>
        <mxCell id="9KH8UP5y82EJrN9jIxo6-628" value="LogIn" style="rounded=1;whiteSpace=wrap;html=1;" vertex="1" parent="1">
          <mxGeometry x="570" y="7250" width="80" height="15" as="geometry" />
        </mxCell>
        <mxCell id="9KH8UP5y82EJrN9jIxo6-629" value="About" style="rounded=1;whiteSpace=wrap;html=1;strokeWidth=1;" vertex="1" parent="1">
          <mxGeometry x="200" y="7340" width="80" height="15" as="geometry" />
        </mxCell>
        <mxCell id="9KH8UP5y82EJrN9jIxo6-630" value="How To" style="rounded=1;whiteSpace=wrap;html=1;strokeWidth=1;" vertex="1" parent="1">
          <mxGeometry x="200" y="7360" width="80" height="15" as="geometry" />
        </mxCell>
        <mxCell id="9KH8UP5y82EJrN9jIxo6-631" value="" style="rounded=1;whiteSpace=wrap;html=1;" vertex="1" parent="1">
          <mxGeometry x="320" y="7340" width="330" height="270" as="geometry" />
        </mxCell>
        <mxCell id="9KH8UP5y82EJrN9jIxo6-632" value="Generate" style="rounded=1;whiteSpace=wrap;html=1;strokeWidth=3;" vertex="1" parent="1">
          <mxGeometry x="200" y="7382" width="80" height="15" as="geometry" />
        </mxCell>
        <mxCell id="9KH8UP5y82EJrN9jIxo6-633" value="Frequency" style="rounded=1;whiteSpace=wrap;html=1;" vertex="1" parent="1">
          <mxGeometry x="365" y="7375" width="80" height="15" as="geometry" />
        </mxCell>
        <mxCell id="9KH8UP5y82EJrN9jIxo6-634" value="Duration" style="rounded=1;whiteSpace=wrap;html=1;" vertex="1" parent="1">
          <mxGeometry x="365" y="7405" width="80" height="15" as="geometry" />
        </mxCell>
        <mxCell id="9KH8UP5y82EJrN9jIxo6-635" value="BPM" style="rounded=1;whiteSpace=wrap;html=1;" vertex="1" parent="1">
          <mxGeometry x="365" y="7435" width="80" height="15" as="geometry" />
        </mxCell>
        <mxCell id="9KH8UP5y82EJrN9jIxo6-636" value="Stereo" style="rounded=1;whiteSpace=wrap;html=1;" vertex="1" parent="1">
          <mxGeometry x="365" y="7465" width="80" height="15" as="geometry" />
        </mxCell>
        <mxCell id="9KH8UP5y82EJrN9jIxo6-637" value="Tick" style="rounded=1;whiteSpace=wrap;html=1;" vertex="1" parent="1">
          <mxGeometry x="365" y="7495" width="80" height="15" as="geometry" />
        </mxCell>
        <mxCell id="9KH8UP5y82EJrN9jIxo6-638" value="Generate" style="rounded=1;whiteSpace=wrap;html=1;" vertex="1" parent="1">
          <mxGeometry x="365" y="7525" width="80" height="15" as="geometry" />
        </mxCell>
        <mxCell id="9KH8UP5y82EJrN9jIxo6-639" value="" style="rounded=0;whiteSpace=wrap;html=1;" vertex="1" parent="1">
          <mxGeometry x="40" y="7720" width="760" height="430" as="geometry" />
        </mxCell>
        <mxCell id="9KH8UP5y82EJrN9jIxo6-640" value="" style="rounded=0;whiteSpace=wrap;html=1;" vertex="1" parent="1">
          <mxGeometry x="160" y="7720" width="520" height="430" as="geometry" />
        </mxCell>
        <mxCell id="9KH8UP5y82EJrN9jIxo6-641" value="Instrument Synchronizer" style="rounded=1;whiteSpace=wrap;html=1;" vertex="1" parent="1">
          <mxGeometry x="200" y="7730" width="80" height="30" as="geometry" />
        </mxCell>
        <mxCell id="9KH8UP5y82EJrN9jIxo6-642" value="" style="rounded=1;whiteSpace=wrap;html=1;" vertex="1" parent="1">
          <mxGeometry x="180" y="7740" width="10" height="10" as="geometry" />
        </mxCell>
        <mxCell id="9KH8UP5y82EJrN9jIxo6-643" value="Instrument Synchronizer" style="rounded=1;whiteSpace=wrap;html=1;strokeWidth=1;" vertex="1" parent="1">
          <mxGeometry x="374" y="7730" width="80" height="30" as="geometry" />
        </mxCell>
        <mxCell id="9KH8UP5y82EJrN9jIxo6-644" value="Metronome Generator" style="rounded=1;whiteSpace=wrap;html=1;strokeWidth=3;" vertex="1" parent="1">
          <mxGeometry x="470" y="7730" width="80" height="30" as="geometry" />
        </mxCell>
        <mxCell id="9KH8UP5y82EJrN9jIxo6-647" value="About" style="rounded=1;whiteSpace=wrap;html=1;strokeWidth=1;" vertex="1" parent="1">
          <mxGeometry x="200" y="7820" width="90" height="15" as="geometry" />
        </mxCell>
        <mxCell id="9KH8UP5y82EJrN9jIxo6-648" value="How To" style="rounded=1;whiteSpace=wrap;html=1;strokeWidth=1;" vertex="1" parent="1">
          <mxGeometry x="200" y="7840" width="90" height="15" as="geometry" />
        </mxCell>
        <mxCell id="9KH8UP5y82EJrN9jIxo6-649" value="" style="rounded=1;whiteSpace=wrap;html=1;" vertex="1" parent="1">
          <mxGeometry x="320" y="7820" width="330" height="270" as="geometry" />
        </mxCell>
        <mxCell id="9KH8UP5y82EJrN9jIxo6-650" value="Generate" style="rounded=1;whiteSpace=wrap;html=1;strokeWidth=3;" vertex="1" parent="1">
          <mxGeometry x="200" y="7862" width="90" height="15" as="geometry" />
        </mxCell>
        <mxCell id="9KH8UP5y82EJrN9jIxo6-651" value="Frequency" style="rounded=1;whiteSpace=wrap;html=1;" vertex="1" parent="1">
          <mxGeometry x="365" y="7855" width="80" height="15" as="geometry" />
        </mxCell>
        <mxCell id="9KH8UP5y82EJrN9jIxo6-652" value="Duration" style="rounded=1;whiteSpace=wrap;html=1;" vertex="1" parent="1">
          <mxGeometry x="365" y="7885" width="80" height="15" as="geometry" />
        </mxCell>
        <mxCell id="9KH8UP5y82EJrN9jIxo6-653" value="BPM" style="rounded=1;whiteSpace=wrap;html=1;" vertex="1" parent="1">
          <mxGeometry x="365" y="7915" width="80" height="15" as="geometry" />
        </mxCell>
        <mxCell id="9KH8UP5y82EJrN9jIxo6-654" value="Stereo" style="rounded=1;whiteSpace=wrap;html=1;" vertex="1" parent="1">
          <mxGeometry x="365" y="7945" width="80" height="15" as="geometry" />
        </mxCell>
        <mxCell id="9KH8UP5y82EJrN9jIxo6-655" value="Tick" style="rounded=1;whiteSpace=wrap;html=1;" vertex="1" parent="1">
          <mxGeometry x="365" y="7975" width="80" height="15" as="geometry" />
        </mxCell>
        <mxCell id="9KH8UP5y82EJrN9jIxo6-656" value="Generate" style="rounded=1;whiteSpace=wrap;html=1;" vertex="1" parent="1">
          <mxGeometry x="365" y="8005" width="80" height="15" as="geometry" />
        </mxCell>
        <mxCell id="9KH8UP5y82EJrN9jIxo6-657" value="&lt;div&gt;Logged as&lt;/div&gt;&lt;div&gt;Username&lt;br&gt;&lt;/div&gt;" style="rounded=1;whiteSpace=wrap;html=1;" vertex="1" parent="1">
          <mxGeometry x="570" y="7730" width="80" height="30" as="geometry" />
        </mxCell>
        <mxCell id="9KH8UP5y82EJrN9jIxo6-659" value="Generated" style="rounded=1;whiteSpace=wrap;html=1;" vertex="1" parent="1">
          <mxGeometry x="520" y="7855" width="80" height="15" as="geometry" />
        </mxCell>
        <mxCell id="9KH8UP5y82EJrN9jIxo6-660" value="Generated" style="rounded=1;whiteSpace=wrap;html=1;" vertex="1" parent="1">
          <mxGeometry x="520" y="7375" width="80" height="15" as="geometry" />
        </mxCell>
        <mxCell id="9KH8UP5y82EJrN9jIxo6-661" value="Download" style="rounded=1;whiteSpace=wrap;html=1;" vertex="1" parent="1">
          <mxGeometry x="520" y="7405" width="80" height="15" as="geometry" />
        </mxCell>
        <mxCell id="9KH8UP5y82EJrN9jIxo6-662" value="Download" style="rounded=1;whiteSpace=wrap;html=1;" vertex="1" parent="1">
          <mxGeometry x="520" y="7885" width="80" height="15" as="geometry" />
        </mxCell>
        <mxCell id="9KH8UP5y82EJrN9jIxo6-663" value="Title" style="rounded=1;whiteSpace=wrap;html=1;" vertex="1" parent="1">
          <mxGeometry x="520" y="7975" width="80" height="15" as="geometry" />
        </mxCell>
        <mxCell id="9KH8UP5y82EJrN9jIxo6-664" value="Save" style="rounded=1;whiteSpace=wrap;html=1;" vertex="1" parent="1">
          <mxGeometry x="520" y="8005" width="80" height="15" as="geometry" />
        </mxCell>
        <mxCell id="9KH8UP5y82EJrN9jIxo6-665" value="My Metronomes" style="rounded=1;whiteSpace=wrap;html=1;strokeWidth=1;" vertex="1" parent="1">
          <mxGeometry x="200" y="7885" width="90" height="15" as="geometry" />
        </mxCell>
        <mxCell id="9KH8UP5y82EJrN9jIxo6-666" value="" style="rounded=0;whiteSpace=wrap;html=1;" vertex="1" parent="1">
          <mxGeometry x="40" y="8200" width="760" height="430" as="geometry" />
        </mxCell>
        <mxCell id="9KH8UP5y82EJrN9jIxo6-667" value="" style="rounded=0;whiteSpace=wrap;html=1;" vertex="1" parent="1">
          <mxGeometry x="160" y="8200" width="520" height="430" as="geometry" />
        </mxCell>
        <mxCell id="9KH8UP5y82EJrN9jIxo6-668" value="Instrument Synchronizer" style="rounded=1;whiteSpace=wrap;html=1;" vertex="1" parent="1">
          <mxGeometry x="200" y="8210" width="80" height="30" as="geometry" />
        </mxCell>
        <mxCell id="9KH8UP5y82EJrN9jIxo6-669" value="" style="rounded=1;whiteSpace=wrap;html=1;" vertex="1" parent="1">
          <mxGeometry x="180" y="8220" width="10" height="10" as="geometry" />
        </mxCell>
        <mxCell id="9KH8UP5y82EJrN9jIxo6-670" value="Instrument Synchronizer" style="rounded=1;whiteSpace=wrap;html=1;strokeWidth=1;" vertex="1" parent="1">
          <mxGeometry x="374" y="8210" width="80" height="30" as="geometry" />
        </mxCell>
        <mxCell id="9KH8UP5y82EJrN9jIxo6-671" value="Metronome Generator" style="rounded=1;whiteSpace=wrap;html=1;strokeWidth=3;" vertex="1" parent="1">
          <mxGeometry x="470" y="8210" width="80" height="30" as="geometry" />
        </mxCell>
        <mxCell id="9KH8UP5y82EJrN9jIxo6-672" value="About" style="rounded=1;whiteSpace=wrap;html=1;strokeWidth=1;" vertex="1" parent="1">
          <mxGeometry x="200" y="8300" width="90" height="15" as="geometry" />
        </mxCell>
        <mxCell id="9KH8UP5y82EJrN9jIxo6-673" value="How To" style="rounded=1;whiteSpace=wrap;html=1;strokeWidth=1;" vertex="1" parent="1">
          <mxGeometry x="200" y="8320" width="90" height="15" as="geometry" />
        </mxCell>
        <mxCell id="9KH8UP5y82EJrN9jIxo6-674" value="" style="rounded=1;whiteSpace=wrap;html=1;" vertex="1" parent="1">
          <mxGeometry x="320" y="8300" width="330" height="270" as="geometry" />
        </mxCell>
        <mxCell id="9KH8UP5y82EJrN9jIxo6-675" value="Generate" style="rounded=1;whiteSpace=wrap;html=1;strokeWidth=1;" vertex="1" parent="1">
          <mxGeometry x="200" y="8342" width="90" height="15" as="geometry" />
        </mxCell>
        <mxCell id="9KH8UP5y82EJrN9jIxo6-682" value="&lt;div&gt;Logged as&lt;/div&gt;&lt;div&gt;Username&lt;br&gt;&lt;/div&gt;" style="rounded=1;whiteSpace=wrap;html=1;" vertex="1" parent="1">
          <mxGeometry x="570" y="8210" width="80" height="30" as="geometry" />
        </mxCell>
        <mxCell id="9KH8UP5y82EJrN9jIxo6-687" value="My Metronomes" style="rounded=1;whiteSpace=wrap;html=1;strokeWidth=3;" vertex="1" parent="1">
          <mxGeometry x="200" y="8365" width="90" height="15" as="geometry" />
        </mxCell>
        <mxCell id="9KH8UP5y82EJrN9jIxo6-688" value="Title" style="rounded=0;whiteSpace=wrap;html=1;strokeWidth=1;" vertex="1" parent="1">
          <mxGeometry x="320" y="8342" width="40" height="15" as="geometry" />
        </mxCell>
        <mxCell id="9KH8UP5y82EJrN9jIxo6-689" value="Duration" style="rounded=0;whiteSpace=wrap;html=1;strokeWidth=1;" vertex="1" parent="1">
          <mxGeometry x="360" y="8342" width="50" height="15" as="geometry" />
        </mxCell>
        <mxCell id="9KH8UP5y82EJrN9jIxo6-690" value="BPM" style="rounded=0;whiteSpace=wrap;html=1;strokeWidth=1;" vertex="1" parent="1">
          <mxGeometry x="410" y="8342" width="30" height="15" as="geometry" />
        </mxCell>
        <mxCell id="9KH8UP5y82EJrN9jIxo6-691" value="Frequency" style="rounded=0;whiteSpace=wrap;html=1;strokeWidth=1;" vertex="1" parent="1">
          <mxGeometry x="470" y="8342" width="70" height="15" as="geometry" />
        </mxCell>
        <mxCell id="9KH8UP5y82EJrN9jIxo6-692" value="Delete" style="rounded=0;whiteSpace=wrap;html=1;strokeWidth=1;" vertex="1" parent="1">
          <mxGeometry x="540" y="8342" width="60" height="15" as="geometry" />
        </mxCell>
        <mxCell id="9KH8UP5y82EJrN9jIxo6-693" value="View" style="rounded=0;whiteSpace=wrap;html=1;strokeWidth=1;" vertex="1" parent="1">
          <mxGeometry x="600" y="8342" width="50" height="15" as="geometry" />
        </mxCell>
        <mxCell id="9KH8UP5y82EJrN9jIxo6-694" value="T1" style="rounded=0;whiteSpace=wrap;html=1;strokeWidth=1;" vertex="1" parent="1">
          <mxGeometry x="320" y="8357" width="40" height="50" as="geometry" />
        </mxCell>
        <mxCell id="9KH8UP5y82EJrN9jIxo6-695" value="D1" style="rounded=0;whiteSpace=wrap;html=1;strokeWidth=1;" vertex="1" parent="1">
          <mxGeometry x="360" y="8357" width="50" height="50" as="geometry" />
        </mxCell>
        <mxCell id="9KH8UP5y82EJrN9jIxo6-696" value="60" style="rounded=0;whiteSpace=wrap;html=1;strokeWidth=1;" vertex="1" parent="1">
          <mxGeometry x="410" y="8357" width="30" height="50" as="geometry" />
        </mxCell>
        <mxCell id="9KH8UP5y82EJrN9jIxo6-697" value="44100Hz" style="rounded=0;whiteSpace=wrap;html=1;strokeWidth=1;" vertex="1" parent="1">
          <mxGeometry x="470" y="8357" width="70" height="50" as="geometry" />
        </mxCell>
        <mxCell id="9KH8UP5y82EJrN9jIxo6-698" value="X" style="rounded=0;whiteSpace=wrap;html=1;strokeWidth=1;" vertex="1" parent="1">
          <mxGeometry x="540" y="8357" width="60" height="50" as="geometry" />
        </mxCell>
        <mxCell id="9KH8UP5y82EJrN9jIxo6-699" value="X" style="rounded=0;whiteSpace=wrap;html=1;strokeWidth=1;" vertex="1" parent="1">
          <mxGeometry x="600" y="8357" width="50" height="50" as="geometry" />
        </mxCell>
        <mxCell id="9KH8UP5y82EJrN9jIxo6-700" value="T2" style="rounded=0;whiteSpace=wrap;html=1;strokeWidth=1;" vertex="1" parent="1">
          <mxGeometry x="320" y="8407" width="40" height="30" as="geometry" />
        </mxCell>
        <mxCell id="9KH8UP5y82EJrN9jIxo6-701" value="D2" style="rounded=0;whiteSpace=wrap;html=1;strokeWidth=1;" vertex="1" parent="1">
          <mxGeometry x="360" y="8407" width="50" height="30" as="geometry" />
        </mxCell>
        <mxCell id="9KH8UP5y82EJrN9jIxo6-702" value="80" style="rounded=0;whiteSpace=wrap;html=1;strokeWidth=1;" vertex="1" parent="1">
          <mxGeometry x="410" y="8407" width="30" height="30" as="geometry" />
        </mxCell>
        <mxCell id="9KH8UP5y82EJrN9jIxo6-703" value="8000Hz" style="rounded=0;whiteSpace=wrap;html=1;strokeWidth=1;" vertex="1" parent="1">
          <mxGeometry x="470" y="8407" width="70" height="30" as="geometry" />
        </mxCell>
        <mxCell id="9KH8UP5y82EJrN9jIxo6-704" value="X" style="rounded=0;whiteSpace=wrap;html=1;strokeWidth=1;" vertex="1" parent="1">
          <mxGeometry x="540" y="8407" width="60" height="30" as="geometry" />
        </mxCell>
        <mxCell id="9KH8UP5y82EJrN9jIxo6-705" value="X" style="rounded=0;whiteSpace=wrap;html=1;strokeWidth=1;" vertex="1" parent="1">
          <mxGeometry x="600" y="8407" width="50" height="30" as="geometry" />
        </mxCell>
        <mxCell id="9KH8UP5y82EJrN9jIxo6-706" value="Tick" style="rounded=0;whiteSpace=wrap;html=1;strokeWidth=1;" vertex="1" parent="1">
          <mxGeometry x="440" y="8342" width="30" height="15" as="geometry" />
        </mxCell>
        <mxCell id="9KH8UP5y82EJrN9jIxo6-707" value="T1" style="rounded=0;whiteSpace=wrap;html=1;strokeWidth=1;" vertex="1" parent="1">
          <mxGeometry x="440" y="8357" width="30" height="50" as="geometry" />
        </mxCell>
        <mxCell id="9KH8UP5y82EJrN9jIxo6-708" value="T2" style="rounded=0;whiteSpace=wrap;html=1;strokeWidth=1;" vertex="1" parent="1">
          <mxGeometry x="440" y="8407" width="30" height="30" as="geometry" />
        </mxCell>
      </root>
    </mxGraphModel>
  </diagram>
</mxfile>
